<svg xmlns="http://www.w3.org/2000/svg" viewBox="0 0 128 128"><defs><style>.cls-1,.cls-3{fill:#5da5f8;}.cls-1{opacity:0.24;}.cls-2{fill:#fff458;}.cls-4{fill:none;stroke:#27393b;stroke-linecap:round;stroke-linejoin:round;stroke-width:4px;}</style></defs><title>globe</title><g id="circles"><circle class="cls-1" cx="64" cy="64" r="54"/></g><g id="icons"><path class="cls-2" d="M112,64a47.926,47.926,0,0,1-.26,4.97c-1.87.24-3.51-.1-5.52-2.77-5.45-7.22-9.01-2.38-12.35-13.62-3.36-11.26,5.74-10.67,5.84-17.29.01-1.08.04-2.16.13-3.21A47.755,47.755,0,0,1,112,64Z"/><path class="cls-2" d="M76.86,70.56c5.07,2.58,5.77,5.49,3.86,9.91s-7.33,6.54-7.84,14.48-1.4,11.65-4.82,7.03-4.62-2.31-4.93-7.44,2.62-7.83-.2-10.45S56.5,79.57,56.6,71.43c.07-5.45,3.42-7.64,11.56-5.93S71.8,67.97,76.86,70.56Z"/><path class="cls-2" d="M69.18,33.24c4.41,1.84,4.32,7.34,0,6.93-4.32-.39-1.52,1.9-9.14,6.12-7.65,4.22-3.52,9.87-7.94,9.26-4.44-.6-.91-4.72-7.64-2.91s3.3,8.44,4.51,10.85S47.57,68,35.7,58.57c-11.84-9.45-1.86-11.92-6.37-21.56a24.594,24.594,0,0,0-2.43-3.46A48,48,0,0,1,50.71,17.86a17.856,17.856,0,0,0,6.51,3.2c4.77.98,5.11,6.76,2.21,9.36s-7.64,1.11-4.22,5.24c3.4,4.12,4.22,2.1,5.53-.32S64.74,31.44,69.18,33.24Z"/><path class="cls-3" d="M106.22,66.2c2.01,2.67,3.65,3.01,5.52,2.77A48,48,0,1,1,26.9,33.55a24.594,24.594,0,0,1,2.43,3.46c4.51,9.64-5.47,12.11,6.37,21.56C47.57,68,50.17,65.9,48.97,63.49s-11.24-9.04-4.51-10.85,3.2,2.31,7.64,2.91c4.42.61.29-5.04,7.94-9.26,7.62-4.22,4.82-6.51,9.14-6.12,4.32.41,4.41-5.09,0-6.93-4.44-1.8-7.14-.31-8.44,2.1s-2.13,4.44-5.53.32c-3.42-4.13,1.31-2.63,4.22-5.24s2.56-8.38-2.21-9.36a17.856,17.856,0,0,1-6.51-3.2A48.083,48.083,0,0,1,99.84,32.08c-.09,1.05-.12,2.13-.13,3.21-.1,6.62-9.2,6.03-5.84,17.29C97.21,63.82,100.77,58.98,106.22,66.2ZM80.72,80.47c1.91-4.42,1.21-7.33-3.86-9.91s-.56-3.35-8.7-5.06-11.49.48-11.56,5.93c-.1,8.14,3.52,10.05,6.33,12.66s-.1,5.33.2,10.45,1.51,2.82,4.93,7.44,4.32.9,4.82-7.03S78.81,84.9,80.72,80.47Z"/><path class="cls-4" d="M16.71,72.29A48.131,48.131,0,0,1,26.9,33.55a43.268,43.268,0,0,1,3.17-3.48"/><path class="cls-4" d="M36.6,24.6a47.466,47.466,0,0,1,14.11-6.74,48.184,48.184,0,0,1,36.38,4.05"/><path class="cls-4" d="M94.26,26.74a48.013,48.013,0,0,1,12.85,58.37,47.145,47.145,0,0,1-4.54,7.46A48.024,48.024,0,0,1,52,110.48"/><path class="cls-4" d="M19.93,83.07A48.161,48.161,0,0,0,42,106.67"/><path class="cls-4" d="M26.9,33.55a24.594,24.594,0,0,1,2.43,3.46c4.51,9.64-5.47,12.11,6.37,21.56C47.57,68,50.17,65.9,48.97,63.49s-11.24-9.04-4.51-10.85,3.2,2.31,7.64,2.91c2.98.41,2.08-2.02,3.5-4.94V50.6"/><path class="cls-4" d="M50.71,17.86a17.856,17.856,0,0,0,6.51,3.2c4.77.98,5.11,6.76,2.21,9.36s-7.64,1.11-4.22,5.24c3.4,4.12,4.22,2.1,5.53-.32s4-3.9,8.44-2.1c4.41,1.84,4.32,7.34,0,6.93-3.88-.35-2.02,1.46-7.12,4.89"/><path class="cls-4" d="M72.97,67.04h-.01c-.71-.48-2.01-.95-4.8-1.54-8.14-1.71-11.49.48-11.56,5.93-.1,8.14,3.52,10.05,6.33,12.66s-.1,5.33.2,10.45,1.51,2.82,4.93,7.44,4.32.9,4.82-7.03,5.93-10.05,7.84-14.48c1.48-3.43,1.39-5.95-1.09-8.1"/><path class="cls-4" d="M104.64,64.36a18.376,18.376,0,0,1,1.58,1.84c2.01,2.67,3.65,3.01,5.52,2.77"/><path class="cls-4" d="M97.42,59.58c-1.25-1.21-2.41-3.18-3.55-7-3.36-11.26,5.74-10.67,5.84-17.29.01-1.08.04-2.16.13-3.21"/></g></svg>